<?xml version="1.0" standalone="no"?>
<!DOCTYPE svg PUBLIC "-//W3C//DTD SVG 1.1//EN" "http://www.w3.org/Graphics/SVG/1.1/DTD/svg11.dtd" >
<svg xmlns="http://www.w3.org/2000/svg">
<metadata>
This is a custom SVG webfont generated by Font Squirrel.
Copyright   : Joe Finocchiaro Design NY 212 581 2458 joejoefinocom 120604 for Pentagran NY Bloomberg 
</metadata>
<defs>
<font id="BloombergLBlack" horiz-adv-x="1759" >
<font-face units-per-em="2048" ascent="1638" descent="-410" />
<missing-glyph horiz-adv-x="471" />
<glyph unicode=" "  horiz-adv-x="471" />
<glyph unicode="&#x09;" horiz-adv-x="471" />
<glyph unicode="&#xa0;" horiz-adv-x="471" />
<glyph unicode="!" horiz-adv-x="681" d="M164 164q0 80 59.5 134t138.5 54q80 0 138.5 -54t58.5 -134t-58.5 -134.5t-138.5 -54.5t-139 54.5t-59 134.5zM190 479v971h342v-971h-342z" />
<glyph unicode="&#x22;" horiz-adv-x="1019" d="M164 872v578h258v-578h-258zM639 872v578h258v-578h-258z" />
<glyph unicode="#" horiz-adv-x="1349" d="M82 387v209h197l34 258h-172v209h201l53 387h258l-53 -387h272l54 387h268l-53 -387h168v-209h-197l-35 -258h172v-209h-196l-58 -387h-268l57 387h-272l-57 -387h-258l57 387h-172zM537 596h272l35 258h-273z" />
<glyph unicode="$" horiz-adv-x="1259" d="M102 145l217 238q115 -125 285 -125q80 0 137 31q72 39 72 110q0 94 -178 164q-274 106 -334 148q-178 123 -178 342q0 184 131 299q117 102 309 127v145h180v-139q250 -14 404 -150l-213 -233q-92 90 -234 90q-78 0 -133 -29q-70 -37 -69 -108q0 -88 176 -152 q262 -96 327 -143q176 -121 177 -346q0 -190 -125 -308q-113 -106 -310 -133v-133h-180v125q-289 12 -461 180z" />
<glyph unicode="%" horiz-adv-x="1505" d="M123 1243q0 104 72.5 170t179.5 66q106 0 178 -65.5t72 -170.5q0 -106 -72 -171.5t-178 -65.5t-179 65.5t-73 171.5zM279 1243q0 -100 96 -100t96 100q0 98 -96 98t-96 -98zM340 514l610 936h217l-614 -936h-213zM881 721q0 104 72.5 169.5t179.5 65.5q106 0 177.5 -65.5 t71.5 -169.5q0 -106 -71.5 -172t-177.5 -66t-179 66t-73 172zM1036 721q0 -100 97 -100q96 0 96 100q0 98 -96 98q-97 0 -97 -98z" />
<glyph unicode="&#x26;" d="M143 397q0 145 99 256q86 100 231 154q-164 176 -164 330q0 182 162 274q133 76 330 76q182 0 319 -84q162 -100 162 -273q0 -250 -297 -385q39 -37 207 -204q47 55 149 207h377q-190 -297 -315 -426q53 -53 313 -322h-434l-104 106q-203 -143 -490 -143q-217 0 -371 107 q-174 120 -174 327zM532 412q0 -76 58.5 -127.5t136.5 -51.5q129 0 242 84l-295 289q-142 -67 -142 -194zM674 1114q0 -63 119 -180q147 86 147 176q0 59 -38 95t-97 36q-131 0 -131 -127z" />
<glyph unicode="'" horiz-adv-x="544" d="M164 872v578h258v-578h-258z" />
<glyph unicode="(" horiz-adv-x="794" d="M143 602q0 506 375 926l215 -137q-268 -381 -268 -789q0 -410 268 -790l-215 -138q-375 420 -375 928z" />
<glyph unicode=")" horiz-adv-x="774" d="M82 -188q268 383 268 790q0 408 -268 789l215 137q375 -420 375 -926q0 -508 -375 -928z" />
<glyph unicode="*" horiz-adv-x="1056" d="M102 1069l66 195l268 -97v283h209v-283l268 88l62 -194l-268 -86l170 -234l-170 -125l-172 236l-166 -225l-166 125l172 223z" />
<glyph unicode="+" horiz-adv-x="1370" d="M102 432v258h433v432h342v-432h432v-258h-432v-432h-342v432h-433z" />
<glyph unicode="," horiz-adv-x="647" d="M61 -272l152 577h332l-207 -577h-277z" />
<glyph unicode="-" horiz-adv-x="718" d="M82 553v258h575v-258h-575z" />
<glyph unicode="." horiz-adv-x="661" d="M150 168q0 80 60 135t140 55q82 0 142.5 -55t60.5 -135q0 -82 -60.5 -137.5t-142.5 -55.5q-80 0 -140 55.5t-60 137.5z" />
<glyph unicode="/" horiz-adv-x="1193" d="M41 53l840 1489l272 -149l-842 -1487z" />
<glyph unicode="0" horiz-adv-x="1847" d="M143 725q0 328 238 547q231 215 563 215q330 0 565.5 -217t235.5 -545t-235.5 -545t-565.5 -217q-332 0 -563 215q-238 219 -238 547zM504 725q0 -182 129 -311t311 -129t311 129t129 311t-129 311t-311 129t-311 -129t-129 -311z" />
<glyph unicode="1" horiz-adv-x="804" d="M123 1182v268h539v-1450h-349v1182h-190z" />
<glyph unicode="2" horiz-adv-x="1179" d="M102 926q2 242 134 389q137 156 374 155q215 0 353 -102q156 -117 155 -324q0 -209 -166 -417q-133 -164 -346 -303h508v-324h-1003v307q639 379 639 699q0 162 -142 161q-162 0 -153 -241h-353z" />
<glyph unicode="3" horiz-adv-x="1165" d="M61 428h359v-18q-4 -137 168 -138q74 0 118 42t44 116q0 162 -254 162q-35 0 -74 -2v260q49 -2 57 -2q213 0 213 184q0 141 -125 142q-59 0 -88.5 -41t-25.5 -103h-349v4q0 207 136 324q127 113 335 112q188 0 316 -100q135 -109 135 -295q0 -227 -213 -301 q127 -29 209 -125t82 -225q0 -213 -154 -342q-145 -119 -364 -119q-238 0 -375 111q-148 121 -150 354z" />
<glyph unicode="4" horiz-adv-x="1257" d="M82 260v277l596 913h377v-899h141v-291h-141v-260h-353v260h-620zM424 537h303v483z" />
<glyph unicode="5" horiz-adv-x="1247" d="M61 385h373q47 -96 162 -96q90 0 149.5 58.5t59.5 148.5q0 82 -55.5 136t-137.5 54q-147 0 -202 -135l-293 82l133 811h792v-289h-512l-47 -221q88 55 207 55q213 0 344 -142t131 -358q0 -250 -161 -391q-154 -135 -408 -135q-211 0 -349.5 108.5t-185.5 313.5z" />
<glyph unicode="6" horiz-adv-x="1263" d="M82 504q0 209 240 551l270 387h403l-344 -467q39 6 76 6q209 0 342 -138t133 -349q0 -238 -160.5 -384.5t-400.5 -146.5q-242 0 -400.5 149.5t-158.5 391.5zM442 502q0 -84 57.5 -140.5t143.5 -56.5q84 0 141.5 56.5t57.5 140.5q0 88 -55.5 145.5t-143.5 57.5 t-144.5 -57.5t-56.5 -145.5z" />
<glyph unicode="7" horiz-adv-x="1142" d="M102 1130v320h959v-320l-494 -1130h-387l533 1130h-611z" />
<glyph unicode="8" horiz-adv-x="1261" d="M102 414q0 121 71 227.5t183 142.5q-172 92 -172 293q0 184 144 295q131 100 319 101q195 0 326 -97q143 -109 143 -297q0 -201 -174 -297q117 -35 187.5 -138t70.5 -226q0 -215 -170 -342q-152 -113 -375 -113q-233 0 -383 105q-170 121 -170 346zM463 459 q0 -78 56 -125t134 -47q80 0 136.5 47t56.5 125t-56.5 125t-136.5 47t-135 -47t-55 -125zM516 1038q0 -57 40 -95t97 -38q59 0 98.5 38t39.5 95t-39 95t-99 38q-57 0 -97 -38t-40 -95z" />
<glyph unicode="9" horiz-adv-x="1304" d="M102 948q0 238 164 387q160 143 400 144q242 0 399.5 -149.5t157.5 -391.5q0 -209 -238 -551l-270 -387h-406l344 467q-37 -6 -75 -6q-209 0 -342.5 139t-133.5 348zM463 940q0 -88 56 -145.5t143 -57.5q88 0 144 57.5t56 145.5q0 84 -57 140.5t-143 56.5 q-84 0 -141.5 -56.5t-57.5 -140.5z" />
<glyph unicode=":" horiz-adv-x="702" d="M150 168q0 80 60 135t140 55q82 0 142.5 -55t60.5 -135q0 -82 -60.5 -137.5t-142.5 -55.5q-80 0 -140 55.5t-60 137.5zM150 799q0 80 60 135t140 55q82 0 142.5 -55t60.5 -135q0 -82 -60.5 -137.5t-142.5 -55.5q-80 0 -140 55.5t-60 137.5z" />
<glyph unicode=";" horiz-adv-x="649" d="M61 -260l152 577h334l-209 -577h-277zM119 807q0 84 61.5 141.5t145.5 57.5t146.5 -57.5t62.5 -141.5q0 -82 -62.5 -139.5t-146.5 -57.5t-145.5 57.5t-61.5 139.5z" />
<glyph unicode="&#x3c;" horiz-adv-x="1261" d="M123 381v311l1036 459v-363l-649 -253v-5l649 -254v-356z" />
<glyph unicode="=" horiz-adv-x="1327" d="M123 238v258h1122v-258h-1122zM123 668v258h1122v-258h-1122z" />
<glyph unicode="&#x3e;" horiz-adv-x="1282" d="M143 -82v354l650 254v6l-650 252v365l1037 -459v-311z" />
<glyph unicode="?" horiz-adv-x="1214" d="M102 1047q20 211 177 329q143 111 362 111q197 0 336 -101q156 -113 156 -303q0 -139 -91 -247q-4 -6 -170 -158q-90 -84 -90 -164v-35h-342v43q0 143 92 248q10 10 170 143q92 76 93 154q0 137 -158 137q-84 0 -136 -49t-57 -133zM416 164q0 80 59.5 134t138.5 54 q80 0 138.5 -54t58.5 -134t-58.5 -134.5t-138.5 -54.5t-139 54.5t-59 134.5z" />
<glyph unicode="@" horiz-adv-x="1748" d="M123 723q0 332 235 551q231 213 566 213q309 0 520 -180q223 -188 223 -494q0 -203 -96 -342q-109 -158 -303 -158q-172 0 -213 142h-4q-115 -141 -285 -142q-139 0 -219 105q-76 96 -76 239q0 180 107 316q115 145 290 145q154 0 222 -117h4l12 74h207l-74 -385 q-18 -96 -18 -137q0 -76 65 -76q92 0 146 129q43 100 43 209q0 240 -162 379q-152 131 -395 131q-264 0 -428 -169t-164 -433q0 -281 172 -443.5t454 -162.5q184 0 334 100l86 -129q-186 -125 -436 -125q-340 0 -571 207q-242 217 -242 553zM711 674q0 -63 33.5 -108.5 t93.5 -45.5q90 0 145 72q49 66 49 160q0 160 -137 159q-84 0 -137 -80q-47 -69 -47 -157z" />
<glyph unicode="A" horiz-adv-x="1519" d="M-20 0l626 1450h324l631 -1450h-400l-125 307h-563l-121 -307h-372zM573 578h355l-178 450z" />
<glyph unicode="B" horiz-adv-x="1388" d="M143 0v1450h607q530 0 530 -369q0 -117 -67.5 -200.5t-182.5 -118.5v-4q141 -18 229.5 -115.5t88.5 -239.5q0 -209 -177 -315q-145 -88 -368 -88h-660zM502 270h284q88 0 146.5 43t58.5 127q0 160 -250 160h-239v-330zM502 870h229q193 0 193 158q0 152 -207 152h-215 v-310z" />
<glyph unicode="C" horiz-adv-x="1427" d="M102 725q0 342 208 552t550 210q360 0 533 -213l-254 -213q-104 109 -267 108q-180 0 -292 -135q-106 -125 -107 -309q0 -180 102 -307q111 -135 287 -135q193 0 293 139l272 -207q-211 -252 -569 -252q-348 0 -552 207t-204 555z" />
<glyph unicode="D" horiz-adv-x="1581" d="M143 0v1450h519q383 0 606 -168q252 -190 252 -561q0 -336 -246 -535q-227 -186 -569 -186h-562zM502 295h131q520 0 520 442q0 205 -152 318q-135 100 -346 100h-153v-860z" />
<glyph unicode="E" horiz-adv-x="1245" d="M143 0v1450h1024v-295h-665v-270h628v-295h-628v-295h702v-295h-1061z" />
<glyph unicode="F" horiz-adv-x="1216" d="M143 0v1450h1012v-295h-653v-295h604v-295h-604v-565h-359z" />
<glyph unicode="G" horiz-adv-x="1585" d="M102 725q0 342 219.5 552t563.5 210q352 0 571 -193l-237 -258q-113 133 -322 133q-188 0 -306 -127t-118 -317t117 -317t305 -127q139 0 248 51v233h-217v295h567v-758q-268 -139 -608 -139q-344 0 -563.5 210t-219.5 552z" />
<glyph unicode="H" horiz-adv-x="1544" d="M143 0v1450h359v-541h581v541h359v-1450h-359v627h-581v-627h-359z" />
<glyph unicode="I" horiz-adv-x="604" d="M143 0v1450h359v-1450h-359z" />
<glyph unicode="J" horiz-adv-x="1124" d="M41 291l330 82q10 -127 133 -127q162 0 162 211v993h356v-965q0 -522 -500 -522q-415 0 -481 328z" />
<glyph unicode="K" horiz-adv-x="1511" d="M143 0v1450h359v-602l563 602h432l-637 -674l692 -776h-460l-590 688v-688h-359z" />
<glyph unicode="L" horiz-adv-x="1114" d="M143 0v1450h359v-1155h592v-295h-951z" />
<glyph unicode="M" horiz-adv-x="2000" d="M143 0v1450h559l328 -946h6l322 946h540v-1450h-346v1112h-4l-366 -1112h-342l-367 1112h-4v-1112h-326z" />
<glyph unicode="N" horiz-adv-x="1646" d="M143 0v1450h467l604 -1008h5v1008h325v-1450h-450l-621 1032h-4v-1032h-326z" />
<glyph unicode="O" d="M102 725q0 346 228 557q223 205 571 205t569 -205q227 -211 228 -557q0 -346 -224.5 -554t-572.5 -208t-573.5 208t-225.5 554zM473 725q0 -193 118 -318.5t310 -125.5q193 0 310.5 125.5t117.5 318.5t-117.5 318.5t-310.5 125.5t-310.5 -125.5t-117.5 -318.5z" />
<glyph unicode="P" horiz-adv-x="1277" d="M143 0v1450h535q559 0 559 -442q0 -295 -242 -390q-139 -53 -493 -53v-565h-359zM502 836h166q217 0 217 172t-217 172h-166v-344z" />
<glyph unicode="Q" horiz-adv-x="1742" d="M102 743q0 328 234 539q225 205 557 205q330 0 553 -191q236 -203 235 -528q0 -166 -63 -297q-72 -145 -207 -221v-4h266v-246h-796q-350 0 -562 197q-217 200 -217 546zM471 743q0 -182 120 -304t302 -122q180 0 300 123t120 303q0 178 -121 302t-299 124 q-180 0 -301 -123t-121 -303z" />
<glyph unicode="R" horiz-adv-x="1345" d="M143 0v1450h592q244 0 387 -96q166 -113 166 -346q0 -328 -305 -414q41 -63 363 -594h-390l-317 565h-137v-565h-359zM502 836h211q219 0 219 172t-219 172h-211v-344z" />
<glyph unicode="S" horiz-adv-x="1177" d="M61 145l218 240q115 -127 284 -127q80 0 137 31q72 39 72 112q0 92 -178 162q-274 106 -334 148q-178 123 -178 342q0 217 176 333q154 100 381 101q297 0 467 -152l-213 -233q-92 90 -234 90q-78 0 -133 -29q-70 -37 -69 -108q0 -86 176 -152q262 -96 328 -141 q176 -123 176 -346q0 -231 -176 -350q-152 -102 -392 -103q-322 0 -508 182z" />
<glyph unicode="T" horiz-adv-x="1308" d="M82 1167v283h1186v-283h-414v-1167h-358v1167h-414z" />
<glyph unicode="U" horiz-adv-x="1546" d="M143 559v891h359v-879q0 -139 76 -223q80 -90 217 -90q133 0 211.5 89t78.5 224v879h359v-891q0 -274 -191 -440q-180 -156 -458 -156q-281 0 -461 156q-191 164 -191 440z" />
<glyph unicode="V" horiz-adv-x="1466" d="M20 1450h386l358 -950h4l365 950h354l-590 -1450h-301z" />
<glyph unicode="W" horiz-adv-x="2207" d="M20 1450h390l231 -930h4l295 930h387l293 -954h4l236 954h348l-408 -1450h-375l-311 1004h-4l-311 -1004h-363z" />
<glyph unicode="X" horiz-adv-x="1423" d="M-20 0l514 752l-465 698h424l276 -457l279 457h381l-437 -672l533 -778h-441l-337 528l-340 -528h-387z" />
<glyph unicode="Y" horiz-adv-x="1429" d="M20 1450h408l322 -543l325 543h375l-526 -832v-618h-359v618z" />
<glyph unicode="Z" horiz-adv-x="1290" d="M92 0v295l694 872h-667v283h1095v-283l-677 -874h702v-293h-1147z" />
<glyph unicode="[" horiz-adv-x="718" d="M164 -367v1819h493v-184h-184v-1450h184v-185h-493z" />
<glyph unicode="\" horiz-adv-x="944" d="M41 1475l291 108l612 -1595l-289 -109z" />
<glyph unicode="]" horiz-adv-x="718" d="M102 -182h185v1450h-185v184h494v-1819h-494v185z" />
<glyph unicode="^" horiz-adv-x="1249" d="M61 672l398 747h381l389 -747h-350l-228 487l-229 -487h-361z" />
<glyph unicode="_" horiz-adv-x="1173" d="M0 -184h1174v-172h-1174v172z" />
<glyph unicode="`" horiz-adv-x="706" d="M41 1419h418l207 -295h-271z" />
<glyph unicode="a" horiz-adv-x="1193" d="M72 283q0 233 247 309q133 41 441 41q2 174 -230 174q-160 0 -294 -98l-125 196q207 115 442 115q549 0 549 -475v-545h-342v125h-4q-96 -150 -328 -150q-147 0 -248 78q-108 87 -108 230zM395 301q0 -53 44 -85t100 -32q88 0 154.5 50.5t66.5 136.5v65h-115 q-250 0 -250 -135z" />
<glyph unicode="b" horiz-adv-x="1320" d="M123 0v1452h342v-563h4q109 131 328 131q213 0 348 -164q125 -152 125 -369q0 -221 -131 -364q-137 -147 -355 -148q-98 0 -188 39q-98 41 -152 117h-4v-131h-317zM440 498q0 -113 66.5 -182.5t179.5 -69.5t179.5 69.5t66.5 182.5t-66.5 182.5t-179.5 69.5t-179.5 -69.5 t-66.5 -182.5z" />
<glyph unicode="c" horiz-adv-x="999" d="M72 498q0 233 161 379q156 143 392 143q201 0 362 -127l-215 -227q-59 57 -149 57q-96 0 -159 -63.5t-63 -161.5q0 -102 60.5 -166t161.5 -64q90 0 151 58l215 -228q-96 -68 -172 -94q-82 -29 -192 -29q-236 0 -392 142q-161 148 -161 381z" />
<glyph unicode="d" horiz-adv-x="1320" d="M72 487q0 217 125 369q135 164 348 164q219 0 327 -131h5v563h342v-1452h-318v131h-4q-53 -76 -152 -117q-88 -39 -188 -39q-217 0 -351 145.5t-134 366.5zM410 498q0 -113 66.5 -182.5t178.5 -69.5q113 0 179.5 69.5t66.5 182.5t-66.5 182.5t-179.5 69.5t-179 -69.5 t-66 -182.5z" />
<glyph unicode="e" horiz-adv-x="1210" d="M72 502q0 231 166 377q158 141 393 141q238 0 383 -142.5t145 -379.5q0 -49 -4 -97h-743q39 -193 256 -192q141 0 260 100l159 -207q-178 -127 -440 -127q-246 0 -405 140q-170 145 -170 387zM412 610h405q-4 80 -60.5 134.5t-138.5 54.5q-86 0 -145 -51.5t-61 -137.5z " />
<glyph unicode="f" horiz-adv-x="919" d="M72 750v245h202q0 242 72 351q90 133 318 133q121 0 215 -19l-15 -260q-51 20 -102 21q-92 0 -123 -56q-23 -39 -23 -137v-33h228v-245h-228v-750h-342v750h-202z" />
<glyph unicode="g" horiz-adv-x="1320" d="M72 502q0 215 129 362q133 156 346 156q238 0 350 -156h4v131h318v-911q0 -283 -166 -432q-158 -143 -445 -144q-317 0 -499 146l170 254q152 -129 323 -129q123 0 199 61.5t76 182.5v96h-5q-106 -131 -311 -131q-221 0 -355 145.5t-134 368.5zM410 504q0 -100 72.5 -173 t172.5 -73t173 72.5t73 173.5q0 100 -72.5 173t-173.5 73q-100 0 -172.5 -73t-72.5 -173z" />
<glyph unicode="h" horiz-adv-x="1232" d="M123 0v1452h342v-592h4q31 78 115 121q76 39 164 39q403 0 403 -471v-549h-342v487q0 123 -21 177q-35 86 -139 86q-184 0 -184 -254v-496h-342z" />
<glyph unicode="i" horiz-adv-x="542" d="M82 1309q0 78 55.5 133t132.5 55q78 0 134.5 -55.5t56.5 -132.5q0 -78 -56.5 -133.5t-134.5 -55.5t-133 55.5t-55 133.5zM100 0v995h344v-995h-344z" />
<glyph unicode="j" horiz-adv-x="563" d="M-82 -475l16 270q33 -16 72 -16q117 0 117 188v1028h342v-1069q0 -418 -369 -418q-96 1 -178 17zM104 1309q0 78 55.5 133t133.5 55t133 -55.5t55 -132.5q0 -78 -55 -133.5t-133 -55.5t-133.5 55.5t-55.5 133.5z" />
<glyph unicode="k" horiz-adv-x="1220" d="M123 0v1452h342v-850l340 393h405l-395 -448l406 -547h-416l-336 504h-4v-504h-342z" />
<glyph unicode="l" horiz-adv-x="567" d="M123 0v1452h342v-1452h-342z" />
<glyph unicode="m" horiz-adv-x="1859" d="M123 0v995h323v-135h5q41 76 120.5 118t169.5 42q106 0 195 -41q98 -49 139 -137q100 178 340 178q352 0 352 -432v-588h-331v580q0 170 -136 170q-186 0 -186 -224v-526h-334v526q0 100 -20 150q-31 74 -117 74q-184 0 -184 -254v-496h-336z" />
<glyph unicode="n" horiz-adv-x="1243" d="M123 0v995h330v-135h4q41 76 120.5 118t170.5 42q403 0 403 -471v-549h-342v487q0 123 -21 177q-37 86 -139 86q-184 0 -184 -254v-496h-342z" />
<glyph unicode="o" horiz-adv-x="1228" d="M72 498q0 233 161 379q156 143 392 143t394.5 -144.5t158.5 -377.5t-159 -378t-394 -145q-236 0 -392 144q-161 146 -161 379zM403 498q0 -102 59.5 -165t162.5 -63q102 0 161.5 62.5t59.5 165.5q0 102 -59.5 164.5t-161.5 62.5t-162 -62.5t-60 -164.5z" />
<glyph unicode="p" horiz-adv-x="1320" d="M123 -467v1462h317v-131h4q53 74 152 117q90 39 188 39q217 0 355 -148q131 -143 131 -364q0 -217 -125 -369q-135 -164 -348 -164q-219 0 -328 131h-4v-573h-342zM440 498q0 -113 66.5 -182.5t179.5 -69.5t179.5 69.5t66.5 182.5t-66.5 182.5t-179.5 69.5t-179.5 -69.5 t-66.5 -182.5z" />
<glyph unicode="q" horiz-adv-x="1320" d="M72 508q0 221 134 366.5t351 145.5q100 0 188 -39q98 -43 152 -117h4v131h318v-1462h-342v573h-5q-109 -131 -327 -131q-213 0 -348 164q-125 152 -125 369zM410 498q0 -113 66.5 -182.5t178.5 -69.5q113 0 179.5 69.5t66.5 182.5t-66.5 182.5t-179.5 69.5t-179 -69.5 t-66 -182.5z" />
<glyph unicode="r" horiz-adv-x="899" d="M123 0v995h342v-159h4q100 184 287 184q51 0 102 -10v-289q-66 20 -131 20q-262 0 -262 -309v-432h-342z" />
<glyph unicode="s" horiz-adv-x="966" d="M41 76l143 221q133 -92 269 -92q150 0 149 76q0 63 -137 100q-205 53 -254 82q-137 76 -137 237q0 160 137 246q117 74 287 74q238 0 379 -98l-129 -195q-111 61 -218 61q-127 0 -127 -69q0 -57 136 -92q195 -51 252 -84q135 -78 135 -242q0 -170 -164 -258 q-129 -68 -318 -68q-253 1 -403 101z" />
<glyph unicode="t" horiz-adv-x="942" d="M72 750v245h196v295h342v-295h271v-245h-271v-332q0 -94 23 -131q33 -53 123 -54q68 0 125 27v-254q-96 -31 -250 -31q-162 0 -256 68q-106 78 -107 233v474h-196z" />
<glyph unicode="u" horiz-adv-x="1253" d="M123 446v549h342v-487q0 -123 20 -176q37 -86 140 -86q184 0 184 254v495h342v-995h-330v135h-4q-41 -76 -121 -118t-170 -42q-403 0 -403 471z" />
<glyph unicode="v" horiz-adv-x="1234" d="M41 995h352l252 -676h4l234 676h331l-393 -995h-368z" />
<glyph unicode="w" horiz-adv-x="1896" d="M41 995h356l203 -624h4l170 624h410l180 -624h4l186 624h312l-344 -995h-351l-206 662h-4l-185 -662h-375z" />
<glyph unicode="x" horiz-adv-x="1267" d="M20 0l394 532l-332 463h395l176 -270l170 270h355l-324 -463l383 -532h-395l-217 332l-234 -332h-371z" />
<glyph unicode="y" horiz-adv-x="1234" d="M41 995h358l256 -628h4l220 628h325l-418 -1101q-72 -190 -165 -279q-113 -106 -299 -107q-121 0 -240 31l41 254q72 -27 135 -26q92 0 148 71q31 41 71 154z" />
<glyph unicode="z" horiz-adv-x="1089" d="M123 0v307l500 443h-488v245h860v-295l-522 -454h535v-246h-885z" />
<glyph unicode="{" horiz-adv-x="927" d="M102 424v235q123 0 173.5 54.5t50.5 177.5q0 31 -3.5 90t-3.5 90q0 201 66 285q76 96 270 96h211v-233q-145 0 -184 -27q-53 -37 -53 -176q0 -31 3 -93.5t3 -95.5q0 -264 -207 -282v-6q207 -18 207 -285q0 -31 -3 -93.5t-3 -94.5q0 -137 53 -175q39 -27 184 -26v-234 h-211q-193 0 -268 97q-68 84 -68 280q0 35 2.5 105.5t2.5 105.5q-1 207 -222 205z" />
<glyph unicode="|" horiz-adv-x="628" d="M164 -129v1581h342v-1581h-342z" />
<glyph unicode="}" horiz-adv-x="927" d="M102 -135q147 0 185 26q53 37 53 175q0 33 -3 95t-3 93q0 266 207 285v6q-207 18 -207 282q0 33 3 95.5t3 93.5q0 139 -53 176q-37 27 -185 27v233h211q193 0 271 -96q66 -84 65 -281q0 -35 -2 -105.5t-2 -105.5q0 -207 221 -205v-235q-123 0 -173 -54.5t-50 -176.5 q0 -31 3 -91.5t3 -89.5q0 -201 -65 -284q-76 -96 -271 -97h-211v234z" />
<glyph unicode="~" horiz-adv-x="1069" d="M82 739q92 176 256 176q84 0 231.5 -69.5t204.5 -69.5q80 0 180 139l74 -221q-92 -176 -256 -176q-84 0 -231.5 69.5t-204.5 69.5q-80 0 -180 -139z" />
<glyph unicode="&#xa1;" horiz-adv-x="681" d="M164 831q0 80 59.5 134.5t138.5 54.5q80 0 138.5 -54.5t58.5 -134.5t-58.5 -134t-138.5 -54t-139 54t-59 134zM190 -442v970h342v-970h-342z" />
<glyph unicode="&#xa2;" horiz-adv-x="1060" d="M102 494q0 203 127 344t332 170v141h164v-137q158 -18 293 -125l-215 -228q-59 59 -150 60q-96 0 -158.5 -64.5t-62.5 -162.5q0 -100 60.5 -164t160.5 -64q92 0 152 55l215 -227q-150 -106 -295 -119v-145h-164v149q-205 29 -332 170.5t-127 346.5z" />
<glyph unicode="&#xa3;" horiz-adv-x="1310" d="M123 0v233h196v406h-196v209h196v145q0 225 156 359q145 123 377 123q289 0 438 -140l-205 -219q-88 88 -206 88q-147 0 -193 -114q-25 -66 -24 -242h319v-209h-319v-406h555v-233h-1094z" />
<glyph unicode="&#xa4;" horiz-adv-x="1353" d="M61 805l60 160h139q84 260 297 395q201 127 487 127q135 0 269 -35l-107 -289q-86 27 -180 27q-123 0 -223 -57q-109 -59 -156 -168h488l-60 -160h-483q-6 -33 -6 -90q0 -37 2 -58h432l-59 -159h-322q33 -106 143 -172q100 -61 217 -62q113 0 207 35l105 -293 q-139 -43 -316 -43q-463 0 -665 350q-57 100 -74 185h-193l60 159h108q-2 16 -2 50q0 61 4 98h-172z" />
<glyph unicode="&#xa5;" horiz-adv-x="1511" d="M61 1450h408l322 -543l325 543h375l-377 -594h217v-197h-340l-26 -41v-96h366v-196h-366v-326h-359v326h-358v196h358v96l-26 41h-332v197h203z" />
<glyph unicode="&#xa6;" horiz-adv-x="628" d="M164 -166v606h342v-606h-342zM164 846v606h342v-606h-342z" />
<glyph unicode="&#xa7;" horiz-adv-x="1267" d="M61 -61l263 129q72 -131 237 -131q162 0 162 106q0 63 -158 129q-231 94 -297 139q-160 113 -159 289q0 190 184 303q-135 90 -135 236q0 182 161 274q131 74 330 74q358 0 500 -207l-248 -154q-66 115 -207 115q-49 0 -87 -26.5t-38 -75.5q0 -70 166 -140 q250 -109 305 -145q166 -111 166 -279q0 -82 -50 -154.5t-128 -111.5q119 -96 119 -243q0 -197 -182 -295q-145 -80 -361 -80q-420 0 -543 248zM453 651q0 -57 47 -98q27 -20 100 -53l188 -88q63 37 64 112q0 76 -121 133l-215 103q-63 -37 -63 -109z" />
<glyph unicode="&#xa8;" horiz-adv-x="892" d="M82 1288q0 66 50 117t116 51q72 0 125 -49t53 -119q0 -76 -50 -127t-124 -51q-70 0 -120 53t-50 125zM508 1288q0 66 50 117t116 51q72 0 125 -49t53 -119q0 -76 -50 -127t-124 -51q-70 0 -120 53t-50 125z" />
<glyph unicode="&#xa9;" horiz-adv-x="1771" d="M143 727q0 315 223.5 538.5t538.5 223.5q317 0 540.5 -223.5t223.5 -538.5q0 -317 -224 -540.5t-540 -223.5q-315 0 -538.5 223.5t-223.5 540.5zM281 725q0 -264 178 -455q184 -197 448 -196q262 0 447 196q178 190 178 455q0 266 -178 457q-184 197 -447 196 q-264 0 -445 -193.5t-181 -459.5zM545 731q0 170 105.5 275.5t275.5 105.5q184 0 270 -106l-127 -107q-51 53 -133 53q-88 0 -143.5 -65.5t-55.5 -155.5t51 -153q55 -70 144 -70q96 0 145 72l137 -105q-106 -125 -288 -125q-174 0 -277.5 103.5t-103.5 277.5z" />
<glyph unicode="&#xaa;" horiz-adv-x="778" d="M82 1047q0 139 147 184q80 25 263 24q2 104 -136 105q-96 0 -176 -60l-76 119q125 68 265 68q328 0 327 -285v-323h-204v73h-3q-57 -88 -194 -88q-88 0 -148 47q-65 52 -65 136zM102 684v90h594v-90h-594zM274 1059q0 -70 86 -70q53 0 92.5 30t39.5 81v39h-68 q-150 0 -150 -80z" />
<glyph unicode="&#xab;" horiz-adv-x="1241" d="M82 514l369 479l202 -125l-237 -354l237 -354l-202 -125zM629 514l368 479l203 -125l-237 -354l237 -354l-203 -125z" />
<glyph unicode="&#xac;" horiz-adv-x="1372" d="M96 432v258h1182v-655h-358v397h-824z" />
<glyph unicode="&#xad;" horiz-adv-x="1331" d="M104 553v258h1123v-258h-1123z" />
<glyph unicode="&#x2212;" horiz-adv-x="1331" d="M104 553v258h1123v-258h-1123z" />
<glyph unicode="&#xae;" horiz-adv-x="1771" d="M143 727q0 315 223.5 538.5t538.5 223.5q317 0 540.5 -223.5t223.5 -538.5q0 -317 -224 -540.5t-540 -223.5q-315 0 -538.5 223.5t-223.5 540.5zM281 725q0 -264 178 -455q184 -197 446 -196q264 0 449 196q178 190 178 455q0 266 -178 457q-184 197 -449 196 q-262 0 -443 -193.5t-181 -459.5zM637 383v725h295q276 0 276 -221q0 -164 -151 -205q18 -33 180 -299h-195l-159 283h-68v-283h-178zM815 801h107q109 0 108 86q0 86 -108 86h-107v-172z" />
<glyph unicode="&#xaf;" horiz-adv-x="819" d="M82 1251v197h696v-197h-696z" />
<glyph unicode="&#x2c9;" horiz-adv-x="819" d="M82 1251v197h696v-197h-696z" />
<glyph unicode="&#xb0;" horiz-adv-x="747" d="M123 1239q0 104 71.5 170t178.5 66q106 0 179 -66t73 -170q0 -106 -73 -172t-179 -66t-178 66t-72 172zM276 1239q0 -100 97 -100q98 0 98 100q0 98 -98 98q-97 0 -97 -98z" />
<glyph unicode="&#xb1;" horiz-adv-x="1331" d="M82 0v258h1165v-258h-1165zM82 707v258h412v342h342v-342h411v-258h-411v-347h-342v347h-412z" />
<glyph unicode="&#xb2;" horiz-adv-x="833" d="M82 1135q0 145 85 236t228 91q129 0 217 -61q98 -72 99 -195q0 -236 -308 -434h306v-194h-615v186q385 225 385 418q0 98 -84 98q-102 0 -92 -145h-221z" />
<glyph unicode="&#xb3;" horiz-adv-x="851" d="M82 836h225v-13q-2 -82 101 -82q98 0 98 95q0 111 -197 96v158q29 -2 33 -3q129 0 129 111q0 86 -74 86q-37 0 -55 -25.5t-14 -60.5h-219v2q0 123 86 195q80 68 206 67q113 0 193 -59q88 -68 88 -178q0 -137 -129 -181q76 -18 126 -76.5t50 -133.5q0 -129 -95 -204 t-226 -75q-143 0 -230 68q-96 74 -96 213z" />
<glyph unicode="&#xb4;" horiz-adv-x="747" d="M82 1155l207 295h418l-355 -295h-270z" />
<glyph unicode="&#xb5;" horiz-adv-x="1232" d="M123 -467v1462h342v-487q0 -123 20 -176q37 -86 140 -86q184 0 184 254v495h342v-995h-330v135h-4q-84 -160 -303 -160q-25 0 -49 2v-444h-342z" />
<glyph unicode="&#x3bc;" horiz-adv-x="1232" d="M123 -467v1462h342v-487q0 -123 20 -176q37 -86 140 -86q184 0 184 254v495h342v-995h-330v135h-4q-84 -160 -303 -160q-25 0 -49 2v-444h-342z" />
<glyph unicode="&#xb6;" horiz-adv-x="1439" d="M102 1065q0 387 498 387h717v-1722h-254v1525h-211v-1525h-256v948q-215 -2 -344 82q-150 100 -150 305z" />
<glyph unicode="&#xb7;" horiz-adv-x="620" d="M123 659q0 84 61.5 141.5t145.5 57.5t146.5 -57.5t62.5 -141.5t-62.5 -140t-146.5 -56t-145.5 56t-61.5 140z" />
<glyph unicode="&#x2219;" horiz-adv-x="620" d="M123 659q0 84 61.5 141.5t145.5 57.5t146.5 -57.5t62.5 -141.5t-62.5 -140t-146.5 -56t-145.5 56t-61.5 140z" />
<glyph unicode="&#xb8;" horiz-adv-x="540" d="M0 -356l51 96q92 -35 158 -35q135 0 135 66q0 33 -37 53q-29 16 -65 16q-35 0 -74 -16l-66 59l127 191h138l-84 -123q258 0 258 -170q0 -98 -99 -154q-82 -45 -186 -45q-129 1 -256 62z" />
<glyph unicode="&#xb9;" horiz-adv-x="532" d="M82 1288v162h328v-872h-213v710h-115z" />
<glyph unicode="&#xba;" horiz-adv-x="878" d="M82 1176q0 143 108 229q102 82 248 82q147 0 248 -82q111 -86 111 -229t-111 -232q-100 -80 -248 -80q-145 0 -248 80q-108 89 -108 232zM102 684v90h674v-90h-674zM295 1176q0 -63 41 -99.5t102 -36.5q63 0 103.5 36t40.5 100q0 61 -40 98t-104 37q-61 0 -102 -37 t-41 -98z" />
<glyph unicode="&#xbb;" horiz-adv-x="1261" d="M82 160l237 354l-237 354l203 125l368 -479l-368 -479zM629 160l237 354l-237 354l202 125l369 -479l-369 -479z" />
<glyph unicode="&#xbc;" horiz-adv-x="1646" d="M82 1282v160h326v-867h-211v707h-115zM350 0l598 1450h195l-600 -1450h-193zM840 158v164l358 548h240v-538h86v-174h-86v-158h-215v158h-383zM1055 322h182v290z" />
<glyph unicode="&#xbd;" horiz-adv-x="1732" d="M82 1288v162h326v-868h-211v706h-115zM342 0l600 1450h195l-602 -1450h-193zM983 555q2 143 86 234.5t227 91.5q127 0 215 -62q98 -72 99 -194q0 -233 -307 -430h305v-195h-611v184q381 225 381 418q0 96 -84 96q-100 0 -92 -143h-219z" />
<glyph unicode="&#xbe;" horiz-adv-x="1878" d="M82 846h223v-12q0 -82 103 -82q96 0 96 94q0 111 -197 96v156h35q127 0 127 108q0 84 -74 84q-35 0 -54 -24.5t-15 -59.5h-217v2q0 123 86 195q80 66 204 65q113 0 193 -59q86 -66 86 -176q0 -135 -127 -180q76 -18 125 -75.5t49 -133.5q0 -129 -98 -205 q-90 -72 -221 -72q-143 0 -230 66q-94 74 -94 213zM582 0l600 1450h194l-602 -1450h-192zM1073 158v164l359 548h239v-538h84v-174h-84v-158h-217v158h-381zM1288 322h180v290z" />
<glyph unicode="&#xbf;" horiz-adv-x="1112" d="M82 -76q0 139 92 248q2 6 168 158q92 84 92 164v34h340v-43q0 -143 -92 -247q-10 -10 -170 -144q-90 -76 -90 -153q0 -137 156 -138q86 0 137 49.5t57 133.5l340 -25q-20 -211 -174 -330q-145 -111 -363 -110q-199 0 -337 100q-156 113 -156 303zM403 831 q0 80 59.5 134.5t139.5 54.5t138.5 -54.5t58.5 -134.5t-58.5 -134t-138.5 -54t-139.5 54t-59.5 134z" />
<glyph unicode="&#xc0;" horiz-adv-x="1519" d="M-20 0l626 1450h324l631 -1450h-400l-125 307h-563l-121 -307h-372zM399 1849h377l187 -266h-244zM573 578h355l-178 450z" />
<glyph unicode="&#xc1;" horiz-adv-x="1519" d="M-20 0l626 1450h324l631 -1450h-400l-125 307h-563l-121 -307h-372zM559 1583l186 266h375l-317 -266h-244zM573 578h355l-178 450z" />
<glyph unicode="&#xc2;" horiz-adv-x="1519" d="M-20 0l626 1450h324l631 -1450h-400l-125 307h-563l-121 -307h-372zM399 1583l219 266h302l213 -266h-254l-117 146l-113 -146h-250zM573 578h355l-178 450z" />
<glyph unicode="&#xc3;" horiz-adv-x="1519" d="M-20 0l626 1450h324l631 -1450h-400l-125 307h-563l-121 -307h-372zM379 1602q16 102 74 172q66 82 161 81q47 0 132 -32.5t131 -32.5q53 0 81 65h144q-43 -254 -240 -253q-53 0 -139 38.5t-121 38.5q-53 0 -78 -77h-145zM573 578h355l-178 450z" />
<glyph unicode="&#xc4;" horiz-adv-x="1519" d="M-20 0l626 1450h324l631 -1450h-400l-125 307h-563l-121 -307h-372zM387 1720q0 59 44 105.5t104 46.5q66 0 113.5 -44t47.5 -108q0 -68 -45 -113.5t-112 -45.5q-63 0 -107.5 48t-44.5 111zM573 578h355l-178 450zM823 1720q0 59 45 105.5t105 46.5q66 0 114 -44t48 -108 q0 -68 -45.5 -113.5t-112.5 -45.5q-63 0 -108.5 48t-45.5 111z" />
<glyph unicode="&#xc5;" horiz-adv-x="1519" d="M-20 0l626 1450h324l631 -1450h-400l-125 307h-563l-121 -307h-372zM553 1726q0 84 61.5 144.5t147.5 60.5q84 0 146.5 -60.5t62.5 -144.5t-62.5 -144t-146.5 -60q-86 0 -147.5 60t-61.5 144zM573 578h355l-178 450zM668 1726q0 -39 27.5 -66.5t66.5 -27.5q37 0 65.5 28 t28.5 66q0 37 -28.5 66t-65.5 29q-39 0 -66.5 -29t-27.5 -66z" />
<glyph unicode="&#xc6;" horiz-adv-x="2117" d="M-20 0l933 1450h1127v-295h-553v-270h516v-295h-516v-295h590v-295h-949v295h-546l-187 -295h-415zM735 590h393v565h-34z" />
<glyph unicode="&#xc7;" horiz-adv-x="1427" d="M102 762q0 342 208 552t550 210q358 0 533 -213l-254 -213q-106 109 -267 108q-180 0 -292 -135q-106 -127 -107 -309q0 -180 102 -307q111 -137 287 -138q190 0 293 142l272 -207q-223 -258 -583 -252l-62 -90q18 4 43 4q219 0 219 -166q0 -102 -100 -158 q-80 -45 -192 -45q-125 0 -248 62l51 96q82 -35 166 -35q127 0 127 72q0 63 -100 63q-41 0 -76 -16l-66 59l107 164q-293 43 -455 252q-156 199 -156 500z" />
<glyph unicode="&#xc8;" horiz-adv-x="1245" d="M143 0v1450h1024v-295h-665v-270h628v-295h-628v-295h702v-295h-1061zM303 1849h377l186 -266h-243z" />
<glyph unicode="&#xc9;" horiz-adv-x="1245" d="M143 0v1450h1024v-295h-665v-270h628v-295h-628v-295h702v-295h-1061zM444 1583l187 266h377l-320 -266h-244z" />
<glyph unicode="&#xca;" horiz-adv-x="1245" d="M143 0v1450h1024v-295h-665v-270h628v-295h-628v-295h702v-295h-1061zM279 1583l219 266h301l215 -266h-256l-115 146l-115 -146h-249z" />
<glyph unicode="&#xcb;" horiz-adv-x="1245" d="M143 0v1450h1024v-295h-665v-270h628v-295h-628v-295h702v-295h-1061zM260 1718q0 59 45 105.5t105 46.5q63 0 111 -44t48 -108q0 -66 -45 -111.5t-110 -45.5q-63 0 -108.5 47t-45.5 110zM698 1718q0 59 45 105.5t105 46.5q63 0 111.5 -44t48.5 -108q0 -66 -45 -111.5 t-113 -45.5q-63 0 -107.5 47t-44.5 110z" />
<glyph unicode="&#xcc;" horiz-adv-x="604" d="M10 1849h377l186 -266h-243zM145 0v1450h359v-1450h-359z" />
<glyph unicode="&#xcd;" horiz-adv-x="604" d="M72 1583l186 266h377l-320 -266h-243zM139 0v1450h359v-1450h-359z" />
<glyph unicode="&#xce;" horiz-adv-x="604" d="M-51 1583l219 266h301l213 -266h-254l-117 146l-112 -146h-250zM139 0v1450h359v-1450h-359z" />
<glyph unicode="&#xcf;" horiz-adv-x="604" d="M-51 1718q0 61 45 106.5t104 45.5q63 0 111.5 -43t48.5 -109t-45 -111.5t-111 -45.5q-63 0 -108 47t-45 110zM143 0v1450h359v-1450h-359zM387 1718q0 61 45 106.5t105 45.5q63 0 111 -43t48 -109t-45 -111.5t-112 -45.5q-63 0 -107.5 47t-44.5 110z" />
<glyph unicode="&#xd0;" horiz-adv-x="1634" d="M41 590v270h156v590h518q383 0 606 -168q252 -190 252 -561q0 -336 -246 -535q-227 -186 -569 -186h-561v590h-156zM555 295h129q520 0 520 442q0 205 -149 318q-135 100 -348 100h-152v-295h332v-270h-332v-295z" />
<glyph unicode="&#xd1;" horiz-adv-x="1646" d="M143 0v1450h467l604 -1008h5v1008h325v-1450h-450l-621 1032h-4v-1032h-326zM494 1595q18 102 73 172q66 82 162 82q47 0 132 -32.5t130 -32.5q53 0 82 65h144q-43 -254 -240 -254q-53 0 -138 39t-122 39q-53 0 -78 -78h-145z" />
<glyph unicode="&#xd2;" d="M102 725q0 346 228 557q223 205 571 205t569 -205q227 -211 228 -557q0 -346 -224.5 -554t-572.5 -208t-573.5 208t-225.5 554zM473 725q0 -193 118 -318.5t310 -125.5q193 0 310.5 125.5t117.5 318.5t-117.5 318.5t-310.5 125.5t-310.5 -125.5t-117.5 -318.5zM528 1849 h377l187 -266h-244z" />
<glyph unicode="&#xd3;" d="M102 725q0 346 228 557q223 205 571 205t569 -205q227 -211 228 -557q0 -346 -224.5 -554t-572.5 -208q-350 0 -571 205q-228 211 -228 557zM473 725q0 -193 118 -318.5t310 -125.5q193 0 310.5 125.5t117.5 318.5t-117.5 318.5t-310.5 125.5t-310.5 -125.5 t-117.5 -318.5zM715 1585l186 264h377l-320 -264h-243z" />
<glyph unicode="&#xd4;" d="M102 725q0 346 228 557q223 205 571 205t569 -205q227 -211 228 -557q0 -346 -224.5 -554t-572.5 -208t-573.5 208t-225.5 554zM473 725q0 -193 118 -318.5t310 -125.5q193 0 310.5 125.5t117.5 318.5t-117.5 318.5t-310.5 125.5t-310.5 -125.5t-117.5 -318.5zM532 1583 l220 266h301l215 -266h-256l-115 146l-115 -146h-250z" />
<glyph unicode="&#xd5;" d="M102 725q0 346 228 557q223 205 571 205t569 -205q227 -211 228 -557q0 -346 -224.5 -554t-572.5 -208t-573.5 208t-225.5 554zM473 725q0 -193 118 -318.5t310 -125.5q193 0 310.5 125.5t117.5 318.5t-117.5 318.5t-310.5 125.5t-310.5 -125.5t-117.5 -318.5zM565 1593 q16 102 72 172q66 82 162 82q47 0 132 -32.5t132 -32.5q53 0 80 65h143q-43 -254 -239 -254q-53 0 -138.5 39t-120.5 39q-55 0 -77 -78h-146z" />
<glyph unicode="&#xd6;" d="M102 725q0 346 228 557q223 205 571 205t569 -205q227 -211 228 -557q0 -346 -224.5 -554t-572.5 -208t-573.5 208t-225.5 554zM473 725q0 -193 118 -318.5t310 -125.5q193 0 310.5 125.5t117.5 318.5t-117.5 318.5t-310.5 125.5t-310.5 -125.5t-117.5 -318.5zM526 1718 q0 59 45 105.5t105 46.5q66 0 113 -44t47 -108q0 -68 -45.5 -112.5t-110.5 -44.5q-63 0 -108.5 47t-45.5 110zM965 1718q0 59 45 105.5t104 46.5q63 0 111.5 -44t48.5 -108q0 -68 -45 -112.5t-111 -44.5q-63 0 -108 47t-45 110z" />
<glyph unicode="&#xd7;" horiz-adv-x="1331" d="M80 915l225 230l363 -359l352 357l217 -211l-354 -369l368 -354l-223 -227l-360 360l-363 -362l-217 213l356 370z" />
<glyph unicode="&#xd8;" d="M102 725q0 346 228 557q221 205 571 205q268 0 469 -127l186 201l113 -101l-180 -196q209 -209 209 -539q0 -346 -224.5 -554t-572.5 -208q-276 0 -481 135l-184 -202l-115 98l182 201q-201 206 -201 530zM473 725q0 -158 78 -272l594 647q-106 70 -244 69 q-193 0 -310.5 -125.5t-117.5 -318.5zM647 356q109 -76 254 -75q193 0 310.5 125.5t117.5 318.5q0 164 -86 281z" />
<glyph unicode="&#xd9;" horiz-adv-x="1546" d="M143 559v891h359v-879q0 -139 76 -223q80 -90 217 -90q133 0 211.5 89t78.5 224v879h359v-891q0 -274 -191 -440q-180 -156 -458 -156q-281 0 -461 156q-191 164 -191 440zM406 1849h376l185 -266h-242z" />
<glyph unicode="&#xda;" horiz-adv-x="1546" d="M143 559v891h359v-879q0 -139 76 -223q80 -90 217 -90q133 0 211.5 89t78.5 224v879h359v-891q0 -274 -191 -440q-180 -156 -458 -156q-281 0 -461 156q-191 164 -191 440zM647 1583l187 266h374l-317 -266h-244z" />
<glyph unicode="&#xdb;" horiz-adv-x="1546" d="M143 559v891h359v-879q0 -139 76 -223q80 -90 217 -90q133 0 215 90q76 88 75 223v879h359v-891q0 -274 -191 -440q-180 -156 -458 -156q-281 0 -461 156q-191 164 -191 440zM418 1583l221 266h299l215 -266h-256l-115 146l-114 -146h-250z" />
<glyph unicode="&#xdc;" horiz-adv-x="1546" d="M143 559v891h359v-879q0 -139 76 -223q80 -90 217 -90q133 0 211.5 89t78.5 224v879h359v-891q0 -274 -191 -440q-180 -156 -458 -156q-281 0 -461 156q-191 164 -191 440zM420 1716q0 59 45 105.5t104 46.5q63 0 111.5 -44t48.5 -108q0 -66 -45 -111.5t-113 -45.5 q-63 0 -107 47t-44 110zM858 1716q0 59 44 105.5t104 46.5q66 0 113.5 -44t47.5 -108q0 -66 -45 -111.5t-112 -45.5q-63 0 -107.5 47t-44.5 110z" />
<glyph unicode="&#xdd;" horiz-adv-x="1429" d="M20 1450h408l322 -543l325 543h375l-526 -832v-618h-359v618zM512 1638l186 267h377l-319 -267h-244z" />
<glyph unicode="&#xde;" horiz-adv-x="1277" d="M143 0v1450h359v-258q354 0 493 -53q242 -94 242 -389t-242 -390q-139 -53 -493 -53v-307h-359zM502 578h166q217 0 217 172t-217 172h-166v-344z" />
<glyph unicode="&#xdf;" horiz-adv-x="1370" d="M123 0v1067q0 254 164 385q150 121 407 121q201 0 340 -90q164 -104 164 -295q0 -233 -209 -318v-4q156 -31 243 -145.5t87 -276.5q0 -213 -141.5 -341t-356.5 -128q-135 0 -233 25v244q45 -10 100 -11q121 0 197 58q86 66 86 182q0 252 -322 250v258q211 -2 211 162 q0 74 -55 117t-131 43q-92 0 -150.5 -54.5t-58.5 -146.5v-1102h-342z" />
<glyph unicode="&#xe0;" horiz-adv-x="1193" d="M72 283q0 233 247 309q133 41 441 41q2 174 -230 174q-160 0 -294 -98l-125 196q207 115 442 115q549 0 549 -475v-545h-342v125h-4q-96 -150 -328 -150q-147 0 -248 78q-108 87 -108 230zM217 1452h375l186 -266h-241zM395 301q0 -53 44 -85t100 -32q88 0 154.5 50.5 t66.5 136.5v65h-115q-250 0 -250 -135z" />
<glyph unicode="&#xe1;" horiz-adv-x="1193" d="M72 283q0 233 247 309q133 41 441 41q2 174 -230 174q-160 0 -294 -98l-125 196q207 115 442 115q549 0 549 -475v-545h-342v125h-4q-96 -150 -328 -150q-147 0 -248 78q-108 87 -108 230zM383 1186l186 266h375l-317 -266h-244zM395 301q0 -53 44 -85t100 -32 q88 0 154.5 50.5t66.5 136.5v65h-115q-250 0 -250 -135z" />
<glyph unicode="&#xe2;" horiz-adv-x="1193" d="M72 283q0 233 247 309q133 41 441 41q2 174 -230 174q-160 0 -294 -98l-125 196q207 115 442 115q549 0 549 -475v-545h-342v125h-4q-96 -150 -328 -150q-147 0 -248 78q-108 87 -108 230zM219 1188l219 264h299l215 -264h-254l-116 143l-115 -143h-248zM395 301 q0 -53 44 -85t100 -32q88 0 154.5 50.5t66.5 136.5v65h-115q-250 0 -250 -135z" />
<glyph unicode="&#xe3;" horiz-adv-x="1193" d="M72 283q0 233 247 309q133 41 441 41q2 174 -230 174q-160 0 -294 -98l-125 196q207 115 442 115q549 0 549 -475v-545h-342v125h-4q-96 -150 -328 -150q-147 0 -248 78q-108 87 -108 230zM238 1180q16 102 73 172q66 82 160 82q49 0 134 -33t130 -33q53 0 82 66h144 q-43 -254 -240 -254q-55 0 -140 38.5t-120 38.5q-53 0 -78 -77h-145zM395 301q0 -53 44 -85t100 -32q88 0 154.5 50.5t66.5 136.5v65h-115q-250 0 -250 -135z" />
<glyph unicode="&#xe4;" horiz-adv-x="1193" d="M72 283q0 233 247 309q133 41 441 41q2 174 -230 174q-160 0 -294 -98l-125 196q207 115 442 115q549 0 549 -475v-545h-342v125h-4q-96 -150 -328 -150q-147 0 -248 78q-108 87 -108 230zM182 1319q0 59 44 105t104 46q66 0 114 -44t48 -107q0 -66 -45.5 -112 t-112.5 -46q-63 0 -107.5 47.5t-44.5 110.5zM395 301q0 -53 44 -85t100 -32q88 0 154.5 50.5t66.5 136.5v65h-115q-250 0 -250 -135zM618 1319q0 59 45.5 105t104.5 46q66 0 114 -44t48 -107q0 -66 -45 -112t-113 -46q-63 0 -108.5 47.5t-45.5 110.5z" />
<glyph unicode="&#xe5;" horiz-adv-x="1193" d="M72 283q0 233 247 309q133 41 441 41q2 174 -230 174q-160 0 -294 -98l-125 196q207 115 442 115q549 0 549 -475v-545h-342v125h-4q-96 -150 -328 -150q-147 0 -248 78q-108 87 -108 230zM358 1325q0 84 61.5 144.5t147.5 60.5q84 0 146.5 -60.5t62.5 -144.5 t-62.5 -144.5t-146.5 -60.5q-86 0 -147.5 60.5t-61.5 144.5zM395 301q0 -53 44 -85t100 -32q88 0 154.5 50.5t66.5 136.5v65h-115q-250 0 -250 -135zM473 1325q0 -37 27.5 -65.5t66.5 -28.5q37 0 66 28.5t29 65.5q0 39 -29 66.5t-66 27.5q-39 0 -66.5 -27.5t-27.5 -66.5z " />
<glyph unicode="&#xe6;" horiz-adv-x="1882" d="M61 283q0 221 254 290q131 37 435 37v23q0 174 -230 174q-160 0 -295 -98l-125 196q207 115 424 115q283 0 420 -133q156 133 369 133q238 0 378 -142.5t140 -379.5q0 -49 -6 -97h-744q41 -193 258 -192q139 0 258 100l160 -207q-180 -127 -438 -127q-297 0 -447 175h-4 q-100 -92 -196.5 -133.5t-227.5 -41.5q-162 0 -264 72q-119 82 -119 236zM385 287q0 -51 49 -80q41 -27 94 -27q86 0 154 54.5t68 138.5v35h-115q-250 0 -250 -121zM1081 610h406q-2 80 -59.5 134.5t-137.5 54.5q-88 0 -147.5 -51.5t-61.5 -137.5z" />
<glyph unicode="&#xe7;" horiz-adv-x="999" d="M72 498q0 233 161 379q156 143 392 143q201 0 362 -127l-215 -227q-61 59 -149 59q-96 0 -159 -64.5t-63 -162.5q0 -102 60.5 -165t161.5 -63q90 0 151 56l215 -228q-100 -72 -180 -96q-86 -31 -203 -27l-59 -88q18 4 43 4q217 0 217 -165q0 -102 -98 -158 q-82 -45 -193 -45q-127 0 -250 61l51 97q86 -35 166 -35q127 0 127 71q0 63 -98 64q-41 0 -78 -17l-65 60l110 168q-186 43 -296.5 180.5t-110.5 325.5z" />
<glyph unicode="&#xe8;" horiz-adv-x="1210" d="M72 502q0 231 166 377q158 141 393 141q238 0 383 -142.5t145 -379.5q0 -49 -4 -97h-743q39 -193 256 -192q141 0 260 100l159 -207q-178 -127 -440 -127q-246 0 -405 140q-170 145 -170 387zM289 1450h377l186 -266h-244zM412 610h405q-4 80 -60.5 134.5t-138.5 54.5 q-86 0 -145 -51.5t-61 -137.5zM610 -479h129h-129z" />
<glyph unicode="&#xe9;" horiz-adv-x="1210" d="M72 502q0 231 166 377q158 141 393 141q238 0 383 -142.5t145 -379.5q0 -49 -4 -97h-743q39 -193 256 -192q141 0 260 100l159 -207q-178 -127 -440 -127q-246 0 -405 140q-170 145 -170 387zM412 610h405q-4 80 -60.5 134.5t-138.5 54.5q-86 0 -145 -51.5t-61 -137.5z M442 1184l187 266h377l-320 -266h-244z" />
<glyph unicode="&#xea;" horiz-adv-x="1210" d="M72 502q0 231 166 377q158 141 393 141q238 0 383 -142.5t145 -379.5q0 -49 -4 -97h-743q39 -193 256 -192q141 0 260 100l159 -207q-178 -127 -440 -127q-246 0 -405 140q-170 145 -170 387zM260 1186l219 264h299l215 -264h-254l-116 143l-115 -143h-248zM412 610h405 q-4 80 -60.5 134.5t-138.5 54.5q-86 0 -145 -51.5t-61 -137.5z" />
<glyph unicode="&#xeb;" horiz-adv-x="1210" d="M72 502q0 231 166 377q158 141 393 141q238 0 383 -142.5t145 -379.5q0 -49 -4 -97h-743q39 -193 256 -192q141 0 260 100l159 -207q-178 -127 -440 -127q-246 0 -405 140q-170 145 -170 387zM225 1317q0 59 45 105t105 46q66 0 113 -44t47 -107q0 -66 -45.5 -112 t-110.5 -46q-63 0 -108.5 47.5t-45.5 110.5zM412 610h405q-4 80 -60.5 134.5t-138.5 54.5q-86 0 -145 -51.5t-61 -137.5zM664 1317q0 59 45 105t104 46q66 0 113 -44t47 -107q0 -66 -45 -112t-111 -46q-63 0 -108 47.5t-45 110.5z" />
<glyph unicode="&#xec;" horiz-adv-x="542" d="M-31 1450h377l186 -266h-243zM100 0v995h342v-995h-342z" />
<glyph unicode="&#xed;" horiz-adv-x="542" d="M10 1184l187 266h376l-319 -266h-244zM94 0v995h342v-995h-342z" />
<glyph unicode="&#xee;" horiz-adv-x="542" d="M-98 1186l219 264h301l213 -264h-254l-117 143l-112 -143h-250zM96 0v995h342v-995h-342z" />
<glyph unicode="&#xef;" horiz-adv-x="542" d="M-88 1317q0 59 45 105t104 46q63 0 111.5 -44t48.5 -107q0 -66 -45 -112t-110 -46q-63 0 -108.5 47.5t-45.5 110.5zM100 0v995h342v-995h-342zM309 1317q0 59 45 105t105 46q63 0 111 -44t48 -107q0 -66 -45 -112t-110 -46q-66 0 -110 47.5t-44 110.5z" />
<glyph unicode="&#xf0;" horiz-adv-x="1230" d="M82 510q0 215 147.5 362.5t362.5 147.5q123 0 201 -53l4 4q-96 143 -230 264q-45 -18 -215 -92l-147 139l221 94q-66 68 -141 121q63 37 250 143q82 -61 163 -147q41 16 234 98l158 -137l-252 -104q352 -350 352 -775q0 -270 -146 -432q-154 -168 -421 -168 q-233 0 -387 151t-154 384zM414 498q0 -102 60.5 -165t160.5 -63q102 0 162.5 62.5t60.5 165.5q0 102 -60.5 164.5t-162.5 62.5q-100 0 -160.5 -62.5t-60.5 -164.5z" />
<glyph unicode="&#xf1;" horiz-adv-x="1243" d="M123 0v995h330v-135h4q41 76 120.5 118t170.5 42q403 0 403 -471v-549h-342v487q0 123 -21 177q-37 86 -139 86q-184 0 -184 -254v-496h-342zM307 1196q16 102 72 172q66 82 162 82q47 0 133 -33t131 -33q53 0 80 66h145q-43 -254 -239 -254q-55 0 -140.5 39t-120.5 39 q-55 0 -77 -78h-146z" />
<glyph unicode="&#xf2;" horiz-adv-x="1228" d="M72 498q0 233 161 379q156 143 392 143t394.5 -144.5t158.5 -377.5t-159 -378t-394 -145q-236 0 -392 144q-161 146 -161 379zM319 1450h377l185 -266h-242zM403 498q0 -102 59.5 -165t162.5 -63q102 0 161.5 62.5t59.5 165.5q0 102 -59.5 164.5t-161.5 62.5t-162 -62.5 t-60 -164.5z" />
<glyph unicode="&#xf3;" horiz-adv-x="1228" d="M72 498q0 233 161 379q156 143 392 143t394.5 -144.5t158.5 -377.5t-159 -378t-394 -145q-236 0 -392 144q-161 146 -161 379zM403 498q0 -102 59.5 -165t162.5 -63q102 0 161.5 62.5t59.5 165.5q0 102 -59.5 164.5t-161.5 62.5t-162 -62.5t-60 -164.5zM406 1184l186 266 h377l-320 -266h-243z" />
<glyph unicode="&#xf4;" horiz-adv-x="1228" d="M72 498q0 233 161 379q156 143 392 143t394.5 -144.5t158.5 -377.5t-159 -378t-394 -145q-236 0 -392 144q-161 146 -161 379zM260 1186l219 264h299l215 -264h-254l-116 143l-115 -143h-248zM403 498q0 -102 59.5 -165t162.5 -63q102 0 161.5 62.5t59.5 165.5 q0 102 -59.5 164.5t-161.5 62.5t-162 -62.5t-60 -164.5z" />
<glyph unicode="&#xf5;" horiz-adv-x="1228" d="M72 498q0 233 161 379q156 143 392 143t394.5 -144.5t158.5 -377.5t-159 -378t-394 -145q-236 0 -392 144q-161 146 -161 379zM231 1182q18 102 74 172q66 82 162 82q47 0 132 -33t130 -33q55 0 82 66h143q-43 -254 -239 -254q-53 0 -138 39t-122 39q-53 0 -76 -78h-148z M403 498q0 -102 59.5 -165t162.5 -63q102 0 161.5 62.5t59.5 165.5q0 102 -59.5 164.5t-161.5 62.5t-162 -62.5t-60 -164.5z" />
<glyph unicode="&#xf6;" horiz-adv-x="1228" d="M72 498q0 233 161 379q156 143 392 143t394.5 -144.5t158.5 -377.5t-159 -378t-394 -145q-236 0 -392 144q-161 146 -161 379zM240 1317q0 59 45 105t104 46q66 0 113 -44t47 -107q0 -66 -45 -112t-111 -46q-63 0 -108 47.5t-45 110.5zM403 498q0 -102 59.5 -165 t162.5 -63q102 0 161.5 62.5t59.5 165.5q0 102 -59.5 164.5t-161.5 62.5t-162 -62.5t-60 -164.5zM678 1317q0 59 45 105t104 46q66 0 113 -44t47 -107q0 -66 -45 -112t-111 -46q-63 0 -108 47.5t-45 110.5z" />
<glyph unicode="&#xf7;" horiz-adv-x="1398" d="M102 432v258h1221v-258h-1221zM508 139q0 84 61.5 141.5t145.5 57.5t146.5 -57.5t62.5 -141.5t-62.5 -141t-146.5 -57t-145.5 57t-61.5 141zM508 987q0 84 61.5 141.5t145.5 57.5t146.5 -57.5t62.5 -141.5t-62.5 -141.5t-146.5 -57.5t-145.5 57.5t-61.5 141.5z" />
<glyph unicode="&#xf8;" horiz-adv-x="1228" d="M72 12l143 144q-125 139 -125 342q0 233 162 379q156 143 391 143q193 0 338 -100l137 137l96 -92l-135 -134q117 -139 117 -333q0 -233 -158.5 -378t-394.5 -145q-186 0 -328 93l-147 -148zM422 498q0 -68 27 -119l315 315q-51 31 -121 31q-102 0 -161.5 -62.5 t-59.5 -164.5zM532 295q49 -25 111 -25q102 0 161.5 62.5t59.5 165.5q0 59 -20 106z" />
<glyph unicode="&#xf9;" horiz-adv-x="1253" d="M123 446v549h342v-487q0 -123 20 -176q37 -86 140 -86q184 0 184 254v495h342v-995h-330v135h-4q-41 -76 -121 -118t-170 -42q-403 0 -403 471zM297 1450h377l186 -266h-244z" />
<glyph unicode="&#xfa;" horiz-adv-x="1253" d="M123 446v549h342v-487q0 -123 20 -176q37 -86 140 -86q184 0 184 254v495h342v-995h-330v135h-4q-41 -76 -121 -118t-170 -42q-403 0 -403 471zM430 1184l186 266h377l-319 -266h-244z" />
<glyph unicode="&#xfb;" horiz-adv-x="1253" d="M123 446v549h342v-487q0 -123 20 -176q37 -86 140 -86q184 0 184 254v495h342v-995h-330v135h-4q-41 -76 -121 -118t-170 -42q-403 0 -403 471zM279 1186l219 264h301l213 -264h-254l-117 143l-113 -143h-249z" />
<glyph unicode="&#xfc;" horiz-adv-x="1253" d="M123 446v549h342v-487q0 -123 20 -176q37 -86 140 -86q184 0 184 254v495h342v-995h-330v135h-4q-41 -76 -121 -118t-170 -42q-403 0 -403 471zM256 1317q0 59 45 105t105 46q63 0 111 -44t48 -107q0 -66 -45 -112t-110 -46q-63 0 -108.5 47.5t-45.5 110.5zM694 1317 q0 59 45 105t105 46q63 0 111.5 -44t48.5 -107q0 -66 -45.5 -112t-110.5 -46q-66 0 -110 47.5t-44 110.5z" />
<glyph unicode="&#xfd;" horiz-adv-x="1234" d="M41 995h358l256 -628h4l220 628h325l-418 -1101q-72 -190 -165 -279q-113 -106 -299 -107q-121 0 -240 31l41 254q72 -27 135 -26q92 0 148 71q31 41 71 154zM385 1184l186 266h377l-319 -266h-244z" />
<glyph unicode="&#xfe;" horiz-adv-x="1320" d="M123 -467v1919h342v-563h6q119 131 313 131q217 0 355 -148q131 -143 131 -364q0 -217 -125 -369q-135 -164 -348 -164q-219 0 -328 131h-4v-573h-342zM440 498q0 -113 66.5 -182.5t179.5 -69.5t179.5 69.5t66.5 182.5t-66.5 182.5t-179.5 69.5t-179.5 -69.5 t-66.5 -182.5z" />
<glyph unicode="&#xff;" horiz-adv-x="1234" d="M41 995h358l256 -628h4l220 628h325l-418 -1101q-72 -190 -165 -279q-113 -106 -299 -107q-121 0 -240 31l41 254q72 -27 135 -26q92 0 148 71q31 41 71 154zM270 1317q0 59 44 105t106 46q63 0 111.5 -44t48.5 -107q0 -66 -45.5 -112t-112.5 -46q-63 0 -107.5 47.5 t-44.5 110.5zM707 1317q0 59 45 105t104 46q66 0 114 -44t48 -107q0 -66 -45 -112t-113 -46q-63 0 -108 47.5t-45 110.5z" />
<glyph unicode="&#x152;" horiz-adv-x="2091" d="M102 725q0 334 240 535q225 188 567 188h1104v-295h-559v-270h522v-295h-522v-293h596v-295h-1141q-340 0 -567 188q-240 203 -240 537zM473 725q0 -188 127 -309t315 -121h181v858h-181q-188 0 -315 -121t-127 -307z" />
<glyph unicode="&#x153;" horiz-adv-x="1994" d="M82 498q0 233 153.5 377.5t387.5 144.5q258 0 399 -162q162 162 403 162q238 0 378.5 -142.5t140.5 -379.5q0 -49 -5 -97h-743q39 -193 256 -192q141 0 260 100l160 -207q-178 -127 -428 -127q-276 0 -420 164q-141 -164 -401 -164q-233 0 -387 145t-154 378zM414 498 q0 -102 59 -165t162 -63q102 0 161.5 62.5t59.5 165.5q0 102 -59.5 164.5t-161.5 62.5t-161.5 -62.5t-59.5 -164.5zM1196 610h406q-2 80 -59.5 134.5t-139.5 54.5q-86 0 -145.5 -51.5t-61.5 -137.5z" />
<glyph unicode="&#x178;" horiz-adv-x="1429" d="M20 1450h408l322 -543l325 543h375l-526 -832v-618h-359v618zM369 1774q0 59 45 105t104 46q63 0 111.5 -43t48.5 -108q0 -66 -45 -112t-111 -46q-63 0 -108 47.5t-45 110.5zM807 1774q0 59 44 105t105 46q63 0 111.5 -43t48.5 -108q0 -66 -45 -112t-113 -46 q-63 0 -107 47.5t-44 110.5z" />
<glyph unicode="&#x2c6;" horiz-adv-x="937" d="M82 1155l244 295h333l238 -295h-283l-129 160l-127 -160h-276z" />
<glyph unicode="&#x2dc;" horiz-adv-x="925" d="M82 1167q18 115 80 193q74 90 180 90q53 0 147.5 -37t145.5 -37q59 0 90 74h160q-47 -283 -267 -283q-59 0 -154 43t-134 43q-59 0 -86 -86h-162z" />
<glyph unicode="&#x2013;" horiz-adv-x="1269" d="M143 569v246h1024v-246h-1024z" />
<glyph unicode="&#x2014;" horiz-adv-x="2293" d="M143 569v246h2048v-246h-2048z" />
<glyph unicode="&#x2018;" horiz-adv-x="622" d="M82 872l217 578h262l-151 -578h-328z" />
<glyph unicode="&#x2019;" horiz-adv-x="624" d="M102 872l152 578h330l-219 -578h-263z" />
<glyph unicode="&#x201a;" horiz-adv-x="565" d="M20 -272l152 577h332l-207 -577h-277z" />
<glyph unicode="&#x201c;" horiz-adv-x="1083" d="M82 872l217 578h262l-151 -578h-328zM545 872l215 578h262l-152 -578h-325z" />
<glyph unicode="&#x201d;" horiz-adv-x="1087" d="M102 872l152 578h330l-219 -578h-263zM565 872l152 578h330l-220 -578h-262z" />
<glyph unicode="&#x201e;" horiz-adv-x="1128" d="M20 -272l152 577h332l-207 -577h-277zM582 -272l151 577h334l-209 -577h-276z" />
<glyph unicode="&#x2022;" horiz-adv-x="858" d="M123 662q0 135 95 230t231 95q135 0 231 -95t96 -230t-96 -230.5t-231 -95.5t-230.5 95.5t-95.5 230.5z" />
<glyph unicode="&#x2026;" horiz-adv-x="1945" d="M102 174q0 82 61.5 139.5t145.5 57.5t146.5 -57.5t62.5 -139.5q0 -84 -62.5 -141.5t-146.5 -57.5t-145.5 57.5t-61.5 141.5zM784 174q0 82 62.5 139.5t146.5 57.5t145.5 -57.5t61.5 -139.5q0 -84 -61.5 -141.5t-145.5 -57.5t-146.5 57.5t-62.5 141.5zM1468 174 q0 82 61.5 139.5t145.5 57.5t146.5 -57.5t62.5 -139.5q0 -84 -62.5 -141.5t-146.5 -57.5t-145.5 57.5t-61.5 141.5z" />
<glyph unicode="&#x2039;" horiz-adv-x="694" d="M82 514l369 479l202 -125l-237 -354l237 -354l-202 -125z" />
<glyph unicode="&#x203a;" horiz-adv-x="714" d="M82 160l237 354l-237 354l203 125l368 -479l-368 -479z" />
<glyph unicode="&#x2122;" horiz-adv-x="2209" d="M123 1288v162h704v-162h-237v-674h-230v674h-237zM973 614v836h356l207 -545h2l205 545h344v-836h-219v641h-4l-232 -641h-217l-233 641h-2v-641h-207z" />
<glyph unicode="&#xe000;" horiz-adv-x="995" d="M0 995h995v-995h-995v995z" />
<glyph unicode="&#xfb01;" horiz-adv-x="1462" d="M1002 1309q0 78 55.5 133t132.5 55q78 0 134.5 -55.5t56.5 -132.5q0 -78 -56.5 -133.5t-134.5 -55.5t-133 55.5t-55 133.5zM1020 0v995h344v-995h-344zM72 750v245h202q0 242 72 351q90 133 318 133q121 0 215 -19l-15 -260q-51 20 -102 21q-92 0 -123 -56 q-23 -39 -23 -137v-33h228v-245h-228v-750h-342v750h-202z" />
<glyph unicode="&#xfb02;" horiz-adv-x="1486" d="M1043 0v1452h342v-1452h-342zM72 750v245h202q0 242 72 351q90 133 318 133q121 0 215 -19l-15 -260q-51 20 -102 21q-92 0 -123 -56q-23 -39 -23 -137v-33h228v-245h-228v-750h-342v750h-202z" />
<glyph unicode="&#xfb03;" horiz-adv-x="2381" d="M1921 1309q0 78 55.5 133t132.5 55q78 0 134.5 -55.5t56.5 -132.5q0 -78 -56.5 -133.5t-134.5 -55.5t-133 55.5t-55 133.5zM1939 0v995h344v-995h-344zM992 750v245h202q0 242 72 351q90 133 318 133q121 0 215 -19l-15 -260q-51 20 -102 21q-92 0 -123 -56 q-23 -39 -23 -137v-33h228v-245h-228v-750h-342v750h-202zM72 750v245h202q0 242 72 351q90 133 318 133q121 0 215 -19l-15 -260q-51 20 -102 21q-92 0 -123 -56q-23 -39 -23 -137v-33h228v-245h-228v-750h-342v750h-202z" />
<glyph unicode="&#xfb04;" horiz-adv-x="2406" d="M1962 0v1452h342v-1452h-342zM992 750v245h202q0 242 72 351q90 133 318 133q121 0 215 -19l-15 -260q-51 20 -102 21q-92 0 -123 -56q-23 -39 -23 -137v-33h228v-245h-228v-750h-342v750h-202zM72 750v245h202q0 242 72 351q90 133 318 133q121 0 215 -19l-15 -260 q-51 20 -102 21q-92 0 -123 -56q-23 -39 -23 -137v-33h228v-245h-228v-750h-342v750h-202z" />
</font>
</defs>
</svg>
